<svg width="1126" height="895" viewBox="0 0 1126 895" fill="none" xmlns="http://www.w3.org/2000/svg">
<path d="M18.3514 647.27C144.712 564.482 135.383 459.84 266.773 529.959C398.162 600.078 418.64 612.697 484.217 517.531C549.794 422.365 687.102 436.478 735.539 435.956C783.976 435.435 762.03 309.112 844.25 322.901C987.798 346.975 1103.31 272.542 1124.69 274.146" stroke="#FFD000" stroke-width="20"/>
<path d="M1118.68 321.26C978.336 367.115 1095.06 450.489 935.26 436.593C896.434 433.217 902.877 555.77 837.518 560.127C772.159 564.485 764.344 510.24 679.581 543.589C590.561 578.613 568.806 595.265 576.081 655.988C585.091 731.18 462.792 686.488 432.291 703.918" stroke="#FFD000" stroke-width="20"/>
<path d="M1048.05 206.446C964.441 230.36 1033.92 315.702 870.817 230.361C846.377 217.573 802.414 184.729 740.307 205.264C678.201 225.799 707.007 272.193 622.055 249.801C453.082 205.264 522.228 282.806 464.199 301.805C406.17 320.805 362.312 264.81 330 265.556" stroke="#FFD000" stroke-width="20"/>
</svg>
